<svg width="12" height="12" viewBox="0 0 12 12" fill="none" xmlns="http://www.w3.org/2000/svg">
<path d="M0 2C0 1.46957 0.210714 0.960859 0.585786 0.585786C0.960859 0.210714 1.46957 0 2 0H8C8.53043 0 9.03914 0.210714 9.41421 0.585786C9.78929 0.960859 10 1.46957 10 2V8C10 8.53043 9.78929 9.03914 9.41421 9.41421C9.03914 9.78929 8.53043 10 8 10H2C1.46957 10 0.960859 9.78929 0.585786 9.41421C0.210714 9.03914 0 8.53043 0 8V2ZM4.5 4.5H2.5C2.36739 4.5 2.24021 4.55268 2.14645 4.64645C2.05268 4.74021 2 4.86739 2 5C2 5.13261 2.05268 5.25979 2.14645 5.35355C2.24021 5.44732 2.36739 5.5 2.5 5.5H4.5V7.5C4.5 7.63261 4.55268 7.75979 4.64645 7.85355C4.74021 7.94732 4.86739 8 5 8C5.13261 8 5.25979 7.94732 5.35355 7.85355C5.44732 7.75979 5.5 7.63261 5.5 7.5V5.5H7.5C7.63261 5.5 7.75979 5.44732 7.85355 5.35355C7.94732 5.25979 8 5.13261 8 5C8 4.86739 7.94732 4.74021 7.85355 4.64645C7.75979 4.55268 7.63261 4.5 7.5 4.5H5.5V2.5C5.5 2.36739 5.44732 2.24021 5.35355 2.14645C5.25979 2.05268 5.13261 2 5 2C4.86739 2 4.74021 2.05268 4.64645 2.14645C4.55268 2.24021 4.5 2.36739 4.5 2.5V4.5ZM8.5 11C9.16304 11 9.79893 10.7366 10.2678 10.2678C10.7366 9.79893 11 9.16304 11 8.5V1.268C11.304 1.44353 11.5565 1.696 11.732 2.00003C11.9076 2.30406 12 2.64894 12 3V8.5C12 9.42826 11.6313 10.3185 10.9749 10.9749C10.3185 11.6313 9.42826 12 8.5 12H3C2.64894 12 2.30406 11.9076 2.00003 11.732C1.696 11.5565 1.44353 11.304 1.268 11H8.5Z" fill="white"/>
</svg>
