<svg width="64" height="64" viewBox="0 0 64 64" fill="none" xmlns="http://www.w3.org/2000/svg">
<path d="M61 20.9C54.8 15.3 48.6 9.6 42.4 4C33.3 17.8 17.9 30.1 3.3 39C2.9 40.9 2.5 42.7 2 44.5C8.4 50.3 14.8 56.2 21.2 62C36.3 53.7 52.3 41.9 62 28.5C61.7 26 61.3 23.5 61 20.9Z" fill="#699635"/>
<path d="M22.4 54.6C16.1 48.8 9.8 43 3.5 37.3C19.2 28.4 32.4 16.3 42.1 2C48.4 7.8 54.7 13.5 61 19.3C51.3 33.6 38.1 45.7 22.4 54.6" fill="#83BF4F"/>
<path d="M20.8 50.8C16.6 47 12.4 43.1 8.19995 39.3C8.49995 39.1 8.69995 39 8.99995 38.8C9.79995 38.3 9.99995 37.4 9.29995 36.7L8.69995 36.1C21.4 28.3 32.4 18.3 41 6.70002L41.5999 7.30002C42.2999 7.90002 43.3 7.80002 43.9 7.10002C44.1 6.90002 44.2 6.60002 44.4 6.40002C48.6 10.2 52.8 14.1 57 17.9C56.8 18.1 56.7 18.4 56.5 18.6C55.9 19.4 56 20.5 56.7 21.2L57.2999 21.8C48.6999 33.3 37.7 43.3 25 51.1L24.4 50.5C23.7 49.9 22.5 49.8 21.6 50.3C21.3 50.5 21.1 50.6 20.8 50.8V50.8ZM10.9 39.4C14.3 42.5 17.7 45.6 21.2 48.8C22.5 48.4 24 48.5 25.2 49.1C36.8 41.7 46.9 32.5 55 21.8C54.3 20.7 54.2 19.3 54.7 18.1C51.3 15 47.9 11.9 44.4 8.70002C43.5 9.50002 42.1999 9.60002 41.0999 9.00002C32.9999 19.8 22.9 29 11.3 36.4C11.9 37.4 11.8 38.6 10.9 39.4" fill="#699635"/>
<path d="M20 37.3C21.1 36.9 22.3 37 23.1 37.7C22.6 38.1 22 38.5 21.5 38.9C21.3 38.7 20.8 38.7 20.6 38.9C20.3 39.1 20.2 39.4 20.5 39.6C20.7 39.8 21.2 39.8 21.5 39.6C22.7 38.8 24.4 38.7 25.3 39.6C26 40.3 26.1 41.3 25.4 42.1C25.6 42.3 25.8 42.4 26 42.6C25.5 42.9 25 43.3 24.5 43.6C24.3 43.4 24.1 43.2 23.9 43.1C22.8 43.4 21.6 43.3 20.9 42.6C21.5 42.2 22 41.9 22.6 41.5C22.8 41.7 23.3 41.7 23.6 41.5C23.9 41.3 23.9001 41 23.7001 40.8C23.5001 40.6 23.1 40.6 22.8 40.8C22.1 41.3 21.2 41.5 20.4 41.4C19.8 41.3 19.3 41.1 18.9 40.8C18.2 40.1 18.2 39.2 18.8 38.4C18.6 38.3 18.5 38.1 18.3 37.9C18.8 37.6 19.3 37.2 19.8 36.9C19.7 37 19.9 37.1 20 37.3" fill="#699635"/>
<path d="M43.2 15.9C44.1 15.3 45.2 15.3 45.9 16L44.7 17.5C44.5 17.3 44.1 17.3 43.9 17.6C43.7 17.9 43.7 18.3 43.9 18.5C44.1 18.7 44.5 18.7 44.7 18.4C45.6 17.3 47.1 17.1 48 17.9C48.7 18.6 48.9 19.7 48.5 20.7C48.7 20.9 48.8999 21 49.0999 21.2C48.6999 21.7 48.4 22.1 48 22.6C47.8 22.4 47.6 22.2 47.4 22.1C46.5 22.6 45.4999 22.6 44.7999 21.9C45.1999 21.4 45.6999 20.9 46.0999 20.4C46.2999 20.6 46.7 20.6 46.9 20.3C47.1 20 47.1 19.6 46.9 19.4C46.7 19.2 46.2999 19.2 46.0999 19.5C45.5999 20.1 44.7999 20.5 44.0999 20.5C43.5999 20.5 43.1 20.3 42.7 20C42 19.3 41.8 18.3 42.2 17.3C42 17.2 41.9 17 41.7 16.8C42.1 16.4 42.4999 15.9 42.7999 15.4C42.7999 15.6 43 15.7 43.2 15.9" fill="#699635"/>
<path d="M40.1999 35.5C36.9999 38.4 31.5999 38.3 28.4999 35.5C25.3999 32.6 25.5999 28.1 28.7999 25.2C31.9999 22.3 36.9999 22 40.0999 24.9C43.2999 27.7 43.3999 32.6 40.1999 35.5" fill="#699635"/>
<path d="M21.8 24.5L40.7001 41.8C42.9001 40 44.9001 38.1 46.9001 36.1L28.1 18.8C26.1 20.7 24 22.6 21.8 24.5Z" fill="#FFDD7D"/>
<path d="M40.8 49.4C42.9 47.8 45 46.1 47 44.4V36C45 38 42.9 39.9 40.8 41.7V49.4" fill="#DBB471"/>
<path d="M12.1001 24.7C13.2001 24.3 14.1001 23.7 15.0001 23C15.9001 22.3 16.7001 21.6 17.6001 20.8C18.5001 20.1 19.4001 19.3 20.4001 18.8C21.4001 18.2 22.7001 17.9 23.8001 18.1C22.7001 18.3 21.7001 18.8 20.8001 19.5C19.9001 20.1 19.1001 20.9 18.2001 21.6C17.3001 22.3 16.4001 23.1 15.4001 23.7C14.4001 24.3 13.2001 24.7 12.1001 24.7" fill="#8D9998"/>
<path d="M39.8001 33.1C39.8001 33.1 44.7001 34.5 56.1001 31.5C67.5001 28.5 62.1001 61.3 41.3001 61.3C39.0001 61.3 38.9001 58.4 45.3001 53.2C45.3001 53.2 36.3001 55.3 40.2001 48.6C40.2001 48.6 33.8001 49.7 36.7001 44.6C36.7001 44.6 38.0001 40.8 36.8001 36.5C36.9001 36.5 37.6001 34.3 39.8001 33.1" fill="#E8E8E8"/>
<path d="M61.5 34.7C61.7 43.5 54.7 58.1 40.8 58.1H40.6C39.3 60.2 39.9 61.4 41.3 61.4C57.1 61.3 64 42.5 61.5 34.7Z" fill="#D1D1D1"/>
<path d="M54.2999 39.5C51.2999 50.3 39.2999 51.2 39.2999 51.2C38.7999 53.5 39.7999 54.5 41.0999 54.5C45.4999 54.6 53.6999 47.3 54.2999 39.5Z" fill="#D1D1D1"/>
<path d="M45.9 39.5C38.8 49.5 36.3 45.8 36.3 45.8C34.5 49.8 39.2 49.8 40 48.9C42.3 46.4 46 41.2 45.9 39.5Z" fill="#D1D1D1"/>
<path d="M40.5 58.4C41.7 56.8 43.2 55.5 44.7 54.2C46.2 52.9 47.7 51.6 49.2 50.2C50.6 48.8 52 47.2 53 45.4C54 43.6 54.5 41.5 54.3 39.5C54.1 41.5 53.4 43.4 52.3 45C51.2 46.6 49.9 48.1 48.5 49.5C47.1 50.9 45.6 52.2 44.2 53.7C42.7 55 41.4 56.6 40.5 58.4" fill="#8D9998"/>
<path d="M39.3 51.2C39.7 50.1 40.3 49.2 41 48.3C41.7 47.4 42.4001 46.6 43.2001 45.7C43.9001 44.8 44.7001 43.9 45.2001 42.9C45.8001 41.9 46.1001 40.6 45.9001 39.5C45.7001 40.6 45.2 41.6 44.5 42.5C43.9 43.4 43.1001 44.2 42.4001 45.1C41.7001 46 40.9 46.9 40.3 47.9C39.7 48.9 39.3 50.1 39.3 51.2" fill="#8D9998"/>
<path d="M30.2 24.2C30.2 24.2 28.8 19.3 31.8 7.90002C34.8 -3.49998 2 1.90002 2 22.7C2 25 4.9 25.1 10.1 18.7C10.1 18.7 8 27.7 14.7 23.8C14.7 23.8 13.6 30.2 18.7 27.3C18.7 27.3 22.5 26 26.8 27.2C26.8 27.1 29 26.4 30.2 24.2" fill="#E8E8E8"/>
<path d="M28.6 2.49997C19.8 2.29997 5.2 9.29998 5.2 23.2V23.4C3.1 24.6 2 24.1 2 22.7C2 6.89998 20.8 -2.57194e-05 28.6 2.49997Z" fill="#D1D1D1"/>
<path d="M23.8001 9.69995C13.0001 12.7 12.1001 24.7 12.1001 24.7C9.80009 25.2 8.80009 24.2 8.80009 22.9C8.70009 18.5 16.0001 10.3 23.8001 9.69995Z" fill="#D1D1D1"/>
<path d="M23.8 18.0999C13.8 25.1999 17.5 27.6999 17.5 27.6999C13.5 29.4999 13.5 24.7999 14.4 23.9999C16.9 21.6999 22.1 17.9999 23.8 18.0999Z" fill="#D1D1D1"/>
<path d="M4.8999 23.5C6.4999 22.3 7.7999 20.8 9.0999 19.3C10.3999 17.8 11.6999 16.3 13.0999 14.8C14.4999 13.4 16.0999 12 17.8999 11C19.6999 10 21.7999 9.50001 23.7999 9.70001C21.7999 9.90001 19.8999 10.6 18.2999 11.7C16.6999 12.8 15.1999 14.1 13.7999 15.5C12.3999 16.9 11.0999 18.4 9.5999 19.8C8.1999 21.3 6.6999 22.6 4.8999 23.5" fill="#8D9998"/>
</svg>
