<svg width="908" height="856" viewBox="0 0 908 856" fill="none" xmlns="http://www.w3.org/2000/svg">
<path d="M888.5 421L476.6 9.40006C473.634 6.42847 470.111 4.07093 466.233 2.46239C462.355 0.853845 458.198 0.0258789 454 0.0258789C449.802 0.0258789 445.644 0.853845 441.766 2.46239C437.888 4.07093 434.366 6.42847 431.4 9.40006L19.5 421C7.49995 433 0.699951 449.3 0.699951 466.3C0.699951 501.6 29.3999 530.3 64.6999 530.3H108.1V824C108.1 841.7 122.4 856 140.1 856H390V632H502V856H767.9C785.6 856 799.9 841.7 799.9 824V530.3H843.3C860.3 530.3 876.6 523.6 888.6 511.5C913.5 486.5 913.5 446 888.5 421V421Z" fill="white"/>
</svg>
